<svg width="425" height="280" viewBox="0 0 425 280" fill="none" xmlns="http://www.w3.org/2000/svg">
<g clip-path="url(#clip0)">
<rect width="425" height="280" fill="#11102B"/>
<path d="M224.644 101.693C225.236 101.693 225.643 101.816 225.865 102.063C226.112 102.285 226.235 102.692 226.235 103.284V126.446C226.235 127.013 226.112 127.42 225.865 127.667C225.643 127.889 225.236 128 224.644 128H220.5C219.908 128 219.489 127.889 219.242 127.667C219.02 127.42 218.909 127.001 218.909 126.409V120.119C218.909 119.527 218.909 119.009 218.909 118.565C218.934 118.096 218.971 117.628 219.02 117.159C219.069 116.69 219.106 116.333 219.131 116.086C219.156 115.815 219.217 115.432 219.316 114.939C219.439 114.421 219.526 114.051 219.575 113.829C219.649 113.607 219.772 113.151 219.945 112.46C220.118 111.769 220.241 111.264 220.315 110.943H220.019C219.328 112.842 218.773 114.248 218.354 115.161C217.959 116.074 217.355 117.208 216.541 118.565L211.435 127.26C211.164 127.753 210.658 128 209.918 128H205.441C204.849 128 204.43 127.889 204.183 127.667C203.961 127.42 203.85 127.013 203.85 126.446V103.284C203.85 102.717 203.961 102.322 204.183 102.1C204.43 101.853 204.849 101.73 205.441 101.73H209.622C210.214 101.73 210.621 101.853 210.843 102.1C211.065 102.322 211.176 102.717 211.176 103.284V109.611C211.176 111.609 211.09 113.138 210.917 114.199C210.769 115.26 210.399 116.777 209.807 118.75H210.066C211.398 115.371 212.582 112.805 213.618 111.054L218.65 102.433C218.971 101.94 219.489 101.693 220.204 101.693H224.644ZM252.878 108.871C252.878 111.387 251.916 113.175 249.992 114.236C251.423 114.902 252.409 115.753 252.952 116.789C253.495 117.8 253.766 119.046 253.766 120.526C253.766 125.879 250.276 128.555 243.295 128.555C237.03 128.555 233.083 126.397 231.455 122.08C231.258 121.537 231.233 121.118 231.381 120.822C231.554 120.501 231.911 120.255 232.454 120.082L236.08 118.787C236.647 118.59 237.067 118.565 237.338 118.713C237.634 118.861 237.881 119.219 238.078 119.786C238.719 121.389 240.261 122.191 242.703 122.191C243.936 122.191 244.8 122.018 245.293 121.673C245.811 121.328 246.07 120.773 246.07 120.008C246.07 119.243 245.885 118.688 245.515 118.343C245.145 117.998 244.565 117.825 243.776 117.825H240.261C239.669 117.825 239.25 117.714 239.003 117.492C238.781 117.245 238.67 116.838 238.67 116.271V113.2C238.67 112.608 238.781 112.201 239.003 111.979C239.25 111.732 239.669 111.609 240.261 111.609H243.184C243.949 111.609 244.516 111.449 244.886 111.128C245.256 110.807 245.441 110.289 245.441 109.574C245.441 108.217 244.479 107.539 242.555 107.539C240.261 107.539 238.806 108.341 238.189 109.944C237.967 110.511 237.708 110.869 237.412 111.017C237.141 111.165 236.734 111.14 236.191 110.943L232.528 109.648C231.517 109.303 231.196 108.637 231.566 107.65C233.145 103.333 237.042 101.175 243.258 101.175C249.671 101.175 252.878 103.74 252.878 108.871ZM279.459 101.73C280.421 101.73 280.68 102.248 280.236 103.284L270.468 126.631C270.222 127.198 269.938 127.568 269.617 127.741C269.297 127.914 268.729 128 267.915 128H263.216C262.23 128 261.971 127.482 262.439 126.446L265.214 120.23L257.37 103.284C256.877 102.248 257.173 101.73 258.258 101.73H262.624C263.562 101.73 264.203 101.804 264.548 101.952C264.918 102.1 265.227 102.482 265.473 103.099L269.062 111.313L272.466 103.099C272.688 102.482 272.96 102.1 273.28 101.952C273.601 101.804 274.193 101.73 275.056 101.73H279.459ZM304.025 101.73C304.617 101.73 305.024 101.853 305.246 102.1C305.468 102.322 305.579 102.717 305.579 103.284V126.446C305.579 127.013 305.468 127.42 305.246 127.667C305.024 127.889 304.617 128 304.025 128H299.844C299.252 128 298.832 127.889 298.586 127.667C298.364 127.42 298.253 127.013 298.253 126.446V119.231C297.093 119.404 295.835 119.49 294.479 119.49C290.902 119.49 288.287 118.639 286.635 116.937C284.982 115.21 284.156 112.633 284.156 109.204V103.284C284.156 102.717 284.267 102.322 284.489 102.1C284.711 101.853 285.118 101.73 285.71 101.73H289.891C290.483 101.73 290.89 101.853 291.112 102.1C291.358 102.322 291.482 102.717 291.482 103.284V109.204C291.482 111.473 292.851 112.608 295.589 112.608C296.625 112.608 297.513 112.522 298.253 112.349V103.284C298.253 102.717 298.364 102.322 298.586 102.1C298.832 101.853 299.252 101.73 299.844 101.73H304.025ZM329.007 101.73C329.599 101.73 330.006 101.853 330.228 102.1C330.475 102.322 330.598 102.717 330.598 103.284V106.614C330.598 107.206 330.475 107.625 330.228 107.872C330.006 108.094 329.599 108.205 329.007 108.205H319.239V111.498H327.046C327.638 111.498 328.045 111.621 328.267 111.868C328.514 112.09 328.637 112.485 328.637 113.052V116.382C328.637 116.974 328.514 117.393 328.267 117.64C328.045 117.862 327.638 117.973 327.046 117.973H319.239V121.525H329.34C329.907 121.525 330.302 121.636 330.524 121.858C330.771 122.08 330.894 122.487 330.894 123.079V126.446C330.894 127.013 330.771 127.42 330.524 127.667C330.302 127.889 329.907 128 329.34 128H313.504C312.912 128 312.493 127.889 312.246 127.667C312.024 127.42 311.913 127.013 311.913 126.446V103.284C311.913 102.717 312.024 102.322 312.246 102.1C312.493 101.853 312.912 101.73 313.504 101.73H329.007ZM356.531 101.693C357.098 101.693 357.493 101.816 357.715 102.063C357.962 102.285 358.085 102.692 358.085 103.284V126.446C358.085 127.013 357.962 127.42 357.715 127.667C357.493 127.889 357.098 128 356.531 128H352.313C351.746 128 351.339 127.889 351.092 127.667C350.87 127.42 350.759 127.013 350.759 126.446V117.936H343.581V126.446C343.581 127.013 343.47 127.42 343.248 127.667C343.026 127.889 342.619 128 342.027 128H337.846C337.254 128 336.835 127.889 336.588 127.667C336.366 127.42 336.255 127.013 336.255 126.446V103.284C336.255 102.692 336.366 102.285 336.588 102.063C336.835 101.816 337.254 101.693 337.846 101.693H342.027C342.619 101.693 343.026 101.816 343.248 102.063C343.47 102.285 343.581 102.692 343.581 103.284V111.461H350.759V103.284C350.759 102.692 350.87 102.285 351.092 102.063C351.339 101.816 351.746 101.693 352.313 101.693H356.531ZM385.185 101.693C385.777 101.693 386.184 101.816 386.406 102.063C386.653 102.285 386.776 102.692 386.776 103.284V126.446C386.776 127.013 386.653 127.42 386.406 127.667C386.184 127.889 385.777 128 385.185 128H381.041C380.449 128 380.03 127.889 379.783 127.667C379.561 127.42 379.45 127.001 379.45 126.409V120.119C379.45 119.527 379.45 119.009 379.45 118.565C379.475 118.096 379.512 117.628 379.561 117.159C379.61 116.69 379.647 116.333 379.672 116.086C379.697 115.815 379.758 115.432 379.857 114.939C379.98 114.421 380.067 114.051 380.116 113.829C380.19 113.607 380.313 113.151 380.486 112.46C380.659 111.769 380.782 111.264 380.856 110.943H380.56C379.869 112.842 379.314 114.248 378.895 115.161C378.5 116.074 377.896 117.208 377.082 118.565L371.976 127.26C371.705 127.753 371.199 128 370.459 128H365.982C365.39 128 364.971 127.889 364.724 127.667C364.502 127.42 364.391 127.013 364.391 126.446V103.284C364.391 102.717 364.502 102.322 364.724 102.1C364.971 101.853 365.39 101.73 365.982 101.73H370.163C370.755 101.73 371.162 101.853 371.384 102.1C371.606 102.322 371.717 102.717 371.717 103.284V109.611C371.717 111.609 371.631 113.138 371.458 114.199C371.31 115.26 370.94 116.777 370.348 118.75H370.607C371.939 115.371 373.123 112.805 374.159 111.054L379.191 102.433C379.512 101.94 380.03 101.693 380.745 101.693H385.185ZM410.163 101.73C410.755 101.73 411.162 101.853 411.384 102.1C411.631 102.322 411.754 102.717 411.754 103.284V106.614C411.754 107.206 411.631 107.625 411.384 107.872C411.162 108.094 410.755 108.205 410.163 108.205H400.395V111.498H408.202C408.794 111.498 409.201 111.621 409.423 111.868C409.67 112.09 409.793 112.485 409.793 113.052V116.382C409.793 116.974 409.67 117.393 409.423 117.64C409.201 117.862 408.794 117.973 408.202 117.973H400.395V121.525H410.496C411.063 121.525 411.458 121.636 411.68 121.858C411.927 122.08 412.05 122.487 412.05 123.079V126.446C412.05 127.013 411.927 127.42 411.68 127.667C411.458 127.889 411.063 128 410.496 128H394.66C394.068 128 393.649 127.889 393.402 127.667C393.18 127.42 393.069 127.013 393.069 126.446V103.284C393.069 102.717 393.18 102.322 393.402 102.1C393.649 101.853 394.068 101.73 394.66 101.73H410.163ZM203.258 157.647C203.258 154.81 204.072 152.615 205.7 151.061C207.353 149.507 209.597 148.73 212.434 148.73H223.016C223.583 148.73 223.978 148.853 224.2 149.1C224.447 149.322 224.57 149.717 224.57 150.284V173.446C224.57 174.013 224.447 174.42 224.2 174.667C223.978 174.889 223.583 175 223.016 175H218.798C218.231 175 217.824 174.889 217.577 174.667C217.355 174.42 217.244 174.013 217.244 173.446V166.268H216.245C215.406 166.268 214.79 166.404 214.395 166.675C214.025 166.946 213.692 167.44 213.396 168.155L211.213 173.446C210.942 174.087 210.584 174.507 210.14 174.704C209.696 174.901 208.968 175 207.957 175H203.924C202.715 175 202.395 174.396 202.962 173.187L205.996 166.86C206.341 166.219 206.687 165.651 207.032 165.158C204.516 163.678 203.258 161.174 203.258 157.647ZM213.285 155.205C212.496 155.205 211.891 155.427 211.472 155.871C211.053 156.29 210.843 156.87 210.843 157.61C210.843 159.189 211.657 159.978 213.285 159.978H217.244V155.205H213.285ZM251.216 155.871C251.216 158.387 250.254 160.175 248.33 161.236C249.76 161.902 250.747 162.753 251.29 163.789C251.832 164.8 252.104 166.046 252.104 167.526C252.104 172.879 248.613 175.555 241.633 175.555C235.367 175.555 231.421 173.397 229.793 169.08C229.595 168.537 229.571 168.118 229.719 167.822C229.891 167.501 230.249 167.255 230.792 167.082L234.418 165.787C234.985 165.59 235.404 165.565 235.676 165.713C235.972 165.861 236.218 166.219 236.416 166.786C237.057 168.389 238.599 169.191 241.041 169.191C242.274 169.191 243.137 169.018 243.631 168.673C244.149 168.328 244.408 167.773 244.408 167.008C244.408 166.243 244.223 165.688 243.853 165.343C243.483 164.998 242.903 164.825 242.114 164.825H238.599C238.007 164.825 237.587 164.714 237.341 164.492C237.119 164.245 237.008 163.838 237.008 163.271V160.2C237.008 159.608 237.119 159.201 237.341 158.979C237.587 158.732 238.007 158.609 238.599 158.609H241.522C242.286 158.609 242.854 158.449 243.224 158.128C243.594 157.807 243.779 157.289 243.779 156.574C243.779 155.217 242.817 154.539 240.893 154.539C238.599 154.539 237.143 155.341 236.527 156.944C236.305 157.511 236.046 157.869 235.75 158.017C235.478 158.165 235.071 158.14 234.529 157.943L230.866 156.648C229.854 156.303 229.534 155.637 229.904 154.65C231.482 150.333 235.38 148.175 241.596 148.175C248.009 148.175 251.216 150.74 251.216 155.871ZM259.075 175C258.483 175 258.064 174.889 257.817 174.667C257.595 174.42 257.484 174.013 257.484 173.446V150.284C257.484 149.717 257.595 149.322 257.817 149.1C258.064 148.853 258.483 148.73 259.075 148.73H263.256C263.848 148.73 264.255 148.853 264.477 149.1C264.699 149.322 264.81 149.717 264.81 150.284V156.611H269.361C272.272 156.611 274.578 157.413 276.28 159.016C277.982 160.619 278.833 162.864 278.833 165.75C278.833 168.661 277.97 170.93 276.243 172.558C274.516 174.186 272.198 175 269.287 175H259.075ZM281.164 150.21C281.164 149.667 281.275 149.285 281.497 149.063C281.719 148.841 282.101 148.73 282.644 148.73H287.01C287.553 148.73 287.935 148.841 288.157 149.063C288.379 149.285 288.49 149.667 288.49 150.21V173.52C288.49 174.063 288.379 174.445 288.157 174.667C287.935 174.889 287.553 175 287.01 175H282.644C282.101 175 281.719 174.889 281.497 174.667C281.275 174.445 281.164 174.063 281.164 173.52V150.21ZM268.473 168.525C269.336 168.525 270.015 168.278 270.508 167.785C271.001 167.267 271.248 166.601 271.248 165.787C271.248 164.973 271.001 164.319 270.508 163.826C270.015 163.333 269.336 163.086 268.473 163.086H264.81V168.525H268.473ZM316.812 173.187C317.083 173.68 317.133 174.112 316.96 174.482C316.812 174.827 316.442 175 315.85 175H311.854C310.843 175 310.115 174.901 309.671 174.704C309.227 174.507 308.857 174.087 308.561 173.446L305.342 166.823C305.021 166.157 304.688 165.688 304.343 165.417C303.998 165.121 303.492 164.973 302.826 164.973H302.16V173.446C302.16 174.013 302.049 174.42 301.827 174.667C301.605 174.889 301.198 175 300.606 175H296.425C295.833 175 295.414 174.889 295.167 174.667C294.945 174.42 294.834 174.013 294.834 173.446V150.284C294.834 149.717 294.945 149.322 295.167 149.1C295.414 148.853 295.833 148.73 296.425 148.73H300.606C301.198 148.73 301.605 148.853 301.827 149.1C302.049 149.322 302.16 149.717 302.16 150.284V158.498H302.974L308.302 150.099C308.672 149.507 309.017 149.137 309.338 148.989C309.683 148.816 310.325 148.73 311.262 148.73H315.517C316.084 148.73 316.442 148.878 316.59 149.174C316.763 149.47 316.701 149.865 316.405 150.358L309.671 161.088C310.534 161.705 311.287 162.654 311.928 163.937L316.812 173.187ZM344.91 173.483C345.28 174.494 344.923 175 343.837 175H339.841C338.904 175 338.238 174.889 337.843 174.667C337.473 174.445 337.214 174.038 337.066 173.446L336.215 170.782H328.223L327.372 173.446C327.175 174.038 326.891 174.445 326.521 174.667C326.176 174.889 325.559 175 324.671 175H320.786C319.75 175 319.417 174.494 319.787 173.483L328.297 150.025C328.47 149.507 328.692 149.162 328.963 148.989C329.235 148.816 329.654 148.73 330.221 148.73H334.439C334.982 148.73 335.389 148.816 335.66 148.989C335.956 149.162 336.191 149.482 336.363 149.951L344.91 173.483ZM333.181 160.644C332.959 159.904 332.774 159.102 332.626 158.239C332.503 157.376 332.429 156.697 332.404 156.204L332.367 155.464H331.997C332.022 157.24 331.788 158.954 331.294 160.607L329.925 164.973H334.55L333.181 160.644Z" fill="#A9B9CB"/>
<path d="M358.125 158.535C358.125 155.304 359.112 152.775 361.085 150.95C363.083 149.1 365.895 148.175 369.521 148.175C375.096 148.175 378.697 150.333 380.325 154.65C380.523 155.193 380.535 155.624 380.362 155.945C380.214 156.241 379.869 156.475 379.326 156.648L375.367 158.054C374.8 158.227 374.368 158.251 374.072 158.128C373.801 157.98 373.567 157.622 373.369 157.055C372.728 155.452 371.445 154.65 369.521 154.65C368.091 154.65 367.055 154.971 366.413 155.612C365.772 156.229 365.451 157.191 365.451 158.498V165.232C365.451 166.539 365.772 167.514 366.413 168.155C367.055 168.772 368.091 169.08 369.521 169.08C371.495 169.08 372.777 168.278 373.369 166.675C373.591 166.083 373.838 165.725 374.109 165.602C374.381 165.454 374.8 165.479 375.367 165.676L379.326 167.082C379.869 167.255 380.214 167.501 380.362 167.822C380.535 168.118 380.523 168.537 380.325 169.08C378.697 173.397 375.096 175.555 369.521 175.555C365.895 175.555 363.083 174.642 361.085 172.817C359.112 170.967 358.125 168.426 358.125 165.195V158.535ZM406.239 148.693C406.831 148.693 407.238 148.816 407.46 149.063C407.707 149.285 407.83 149.692 407.83 150.284V173.446C407.83 174.013 407.707 174.42 407.46 174.667C407.238 174.889 406.831 175 406.239 175H402.095C401.503 175 401.084 174.889 400.837 174.667C400.615 174.42 400.504 174.001 400.504 173.409V167.119C400.504 166.527 400.504 166.009 400.504 165.565C400.529 165.096 400.566 164.628 400.615 164.159C400.664 163.69 400.701 163.333 400.726 163.086C400.751 162.815 400.812 162.432 400.911 161.939C401.034 161.421 401.121 161.051 401.17 160.829C401.244 160.607 401.367 160.151 401.54 159.46C401.713 158.769 401.836 158.264 401.91 157.943H401.614C400.923 159.842 400.368 161.248 399.949 162.161C399.554 163.074 398.95 164.208 398.136 165.565L393.03 174.26C392.759 174.753 392.253 175 391.513 175H387.036C386.444 175 386.025 174.889 385.778 174.667C385.556 174.42 385.445 174.013 385.445 173.446V150.284C385.445 149.717 385.556 149.322 385.778 149.1C386.025 148.853 386.444 148.73 387.036 148.73H391.217C391.809 148.73 392.216 148.853 392.438 149.1C392.66 149.322 392.771 149.717 392.771 150.284V156.611C392.771 158.609 392.685 160.138 392.512 161.199C392.364 162.26 391.994 163.777 391.402 165.75H391.661C392.993 162.371 394.177 159.805 395.213 158.054L400.245 149.433C400.566 148.94 401.084 148.693 401.799 148.693H406.239Z" fill="#7F8B99"/>
<g clip-path="url(#clip1)">
<path d="M176.992 103.144C176.991 100.084 176.336 97.3798 175.012 95.0595C173.711 92.7771 171.763 90.8651 169.151 89.3523C147.584 76.9232 125.996 64.532 104.437 52.0903C98.6243 48.7369 92.9884 48.8588 87.2191 52.2609C78.635 57.321 35.6569 81.9315 22.85 89.3454C17.5762 92.3974 15.0095 97.0676 15.0082 103.138C15 128.134 15.0082 153.129 15 178.125C15.0013 181.118 15.6284 183.769 16.894 186.056C18.1951 188.406 20.1701 190.371 22.8431 191.918C35.6506 199.332 78.6344 223.941 87.2166 229.002C92.9884 232.406 98.6243 232.527 104.439 229.173C125.998 216.73 147.588 204.34 169.158 191.911C171.831 190.364 173.806 188.398 175.107 186.049C176.37 183.763 176.999 181.112 177 178.118C177 178.118 177 128.14 176.992 103.144" fill="#A9B9CB"/>
<path d="M104.29 52.2531C98.4876 48.908 92.8613 49.0299 87.1014 52.4231C78.5312 57.47 35.6234 82.0167 22.8374 89.4116C17.5718 92.4553 15.0095 97.1136 15.0082 103.168C15 128.099 15.0082 153.029 15 177.961C15.0013 180.946 15.6271 183.59 16.8908 185.87C18.19 188.215 20.1619 190.175 22.8304 191.718C27.0795 194.171 31.3318 196.618 35.5873 199.06L153.981 80.8401C137.416 71.3151 120.845 61.7977 104.29 52.2531Z" fill="#7F8B99"/>
<path d="M112.742 129.238L137.952 129.415C137.952 118.927 127.32 93.2407 96.8367 93.2407C77.415 93.2407 51.3052 105.57 51.3052 141.017C51.3052 176.464 76.9005 188.023 96.8367 188.023C129.121 188.023 136.837 165.716 136.837 153.11L112.785 151.737C112.785 151.737 113.429 166.318 96.7082 166.318C81.2739 166.318 78.6984 147.438 78.6984 141.017C78.6984 131.257 82.1744 115.588 96.7082 115.588C111.243 115.588 112.742 129.238 112.742 129.238" fill="white"/>
</g>
</g>
<defs>
<clipPath id="clip0">
<rect width="425" height="280" fill="white"/>
</clipPath>
<clipPath id="clip1">
<rect x="15" y="49" width="162" height="182" fill="white"/>
</clipPath>
</defs>
</svg>
